<?xml version="1.0"?>
<svg xmlns="http://www.w3.org/2000/svg" xmlns:xlink="http://www.w3.org/1999/xlink" version="1.1" id="Capa_1" x="0px" y="0px" viewBox="0 0 227.333 227.333" style="enable-background:new 0 0 227.333 227.333;" xml:space="preserve" width="512px" height="512px" class="">
    <g transform="matrix(6.12323e-17 1 -1 6.12323e-17 227.333 0)"><path d="M193.591,113.667c1.888-1.855,3.699-3.714,5.399-5.575c16.3-17.84,21.992-34.136,16.026-45.885  c-3.434-6.764-12.22-14.827-34.571-14.827c-8.519,0-18.046,1.181-28.189,3.394c-1.449-5.557-3.091-10.825-4.933-15.711  C138.797,12.452,126.844,0,113.667,0s-25.13,12.452-33.658,35.063c-1.843,4.886-3.485,10.154-4.933,15.711  c-10.143-2.213-19.67-3.394-28.189-3.394c-22.351,0-31.137,8.063-34.571,14.827c-5.966,11.749-0.274,28.044,16.026,45.885  c1.7,1.861,3.512,3.72,5.399,5.575c-1.888,1.855-3.699,3.714-5.399,5.575c-16.3,17.84-21.992,34.136-16.026,45.885  c3.434,6.764,12.22,14.827,34.571,14.827c8.519,0,18.046-1.181,28.189-3.394c1.449,5.557,3.091,10.825,4.933,15.711  c8.528,22.611,20.481,35.063,33.658,35.063s25.13-12.452,33.657-35.063c1.843-4.886,3.485-10.154,4.933-15.712  c10.143,2.213,19.67,3.394,28.189,3.395c0.002,0,0.003,0,0.005,0c22.345,0,31.131-8.063,34.565-14.827  c5.966-11.749,0.274-28.044-16.026-45.885C197.291,117.38,195.479,115.521,193.591,113.667z M180.447,57.38  c13.481,0,22.592,3.322,25.655,9.354c3.889,7.66-1.394,20.275-14.493,34.612c-1.683,1.842-3.477,3.683-5.358,5.52  c-8.155-7.12-17.57-14.079-27.893-20.63c-0.859-8.958-2.144-17.571-3.82-25.681C163.959,58.495,172.747,57.38,180.447,57.38z   M129.957,145.75c-5.411,2.747-10.861,5.287-16.29,7.615c-5.43-2.328-10.88-4.868-16.29-7.615  c-6.548-3.325-12.858-6.845-18.875-10.506c-0.531-6.886-0.817-14.092-0.817-21.579c0-7.486,0.286-14.693,0.817-21.579  c6.017-3.661,12.327-7.181,18.875-10.505c5.411-2.747,10.861-5.287,16.291-7.615c5.43,2.328,10.879,4.868,16.29,7.615  c6.548,3.325,12.858,6.845,18.875,10.506c0.531,6.886,0.817,14.092,0.817,21.579c0,7.486-0.286,14.693-0.817,21.579  C142.815,138.906,136.504,142.426,129.957,145.75z M147.579,147.588c-0.747,5.895-1.677,11.502-2.764,16.783  c-5.921-1.628-12.018-3.586-18.215-5.863c2.628-1.239,5.257-2.508,7.885-3.842C138.96,152.395,143.325,150.026,147.579,147.588z   M100.734,158.509c-6.197,2.277-12.294,4.235-18.215,5.863c-1.087-5.282-2.018-10.888-2.764-16.784  c4.254,2.438,8.619,4.806,13.094,7.079C95.477,156.002,98.106,157.271,100.734,158.509z M68.067,128.543  c-7.11-4.813-13.679-9.803-19.56-14.877c5.882-5.073,12.45-10.063,19.56-14.877c-0.247,4.895-0.383,9.859-0.383,14.877  S67.82,123.648,68.067,128.543z M79.754,79.745c0.747-5.896,1.677-11.502,2.764-16.784c5.921,1.628,12.018,3.587,18.215,5.863  c-2.628,1.239-5.257,2.508-7.885,3.842C88.373,74.938,84.008,77.307,79.754,79.745z M126.599,68.824  c6.197-2.277,12.294-4.235,18.215-5.863c1.087,5.282,2.018,10.888,2.764,16.784c-4.254-2.438-8.619-4.806-13.094-7.079  C131.856,71.331,129.227,70.063,126.599,68.824z M159.266,98.79c7.11,4.813,13.679,9.803,19.56,14.877  c-5.882,5.073-12.45,10.063-19.56,14.877c0.247-4.895,0.383-9.859,0.383-14.877S159.513,103.685,159.266,98.79z M113.667,10  c10.526,0,21.794,16.29,28.861,43.17c-9.303,2.538-19.003,5.874-28.861,9.94c-9.858-4.066-19.557-7.403-28.861-9.94  C91.873,26.29,103.141,10,113.667,10z M35.724,101.346C22.625,87.01,17.343,74.394,21.232,66.734  c3.063-6.032,12.174-9.354,25.655-9.354c7.7,0,16.487,1.115,25.908,3.175c-1.676,8.111-2.96,16.723-3.82,25.681  c-10.323,6.551-19.738,13.51-27.893,20.63C39.201,105.029,37.407,103.188,35.724,101.346z M46.886,169.953  c-13.481,0-22.592-3.322-25.655-9.354c-3.889-7.66,1.394-20.275,14.493-34.612c1.683-1.842,3.477-3.683,5.358-5.52  c8.155,7.12,17.57,14.079,27.893,20.63c0.859,8.958,2.144,17.571,3.82,25.681C63.374,168.838,54.586,169.953,46.886,169.953z   M113.667,217.333c-10.526,0-21.794-16.29-28.861-43.17c9.303-2.538,19.003-5.874,28.861-9.941  c9.857,4.066,19.557,7.403,28.861,9.94C135.46,201.043,124.193,217.333,113.667,217.333z M206.101,160.599  c-3.063,6.033-12.171,9.354-25.649,9.354c-0.001,0-0.004,0-0.005,0c-7.7,0-16.488-1.116-25.909-3.175  c1.675-8.111,2.96-16.723,3.819-25.681c10.323-6.551,19.738-13.51,27.893-20.63c1.881,1.837,3.675,3.678,5.358,5.52  C204.708,140.323,209.99,152.939,206.101,160.599z M135.646,113.667c0,12.119-9.86,21.979-21.979,21.979  c-12.12,0-21.979-9.86-21.979-21.979s9.86-21.979,21.979-21.979C125.786,91.688,135.646,101.547,135.646,113.667z" data-original="#000000" class="active-path" fill="rgb(157,214,255, 5%)"/></g>
</svg>
