<?xml version="1.0" encoding="iso-8859-1"?>
<!-- Generator: Adobe Illustrator 19.0.0, SVG Export Plug-In . SVG Version: 6.00 Build 0)  -->
<svg version="1.1" id="Capa_1" xmlns="http://www.w3.org/2000/svg" xmlns:xlink="http://www.w3.org/1999/xlink" x="0px" y="0px"
	 viewBox="0 0 512 512" style="enable-background:new 0 0 512 512;" xml:space="preserve">
<g>
	<g>
		<path d="M390.967,121.033c-2.934-2.934-7.693-2.934-10.627,0l-12.044,12.044c-2.935,2.934-2.935,7.693,0,10.627
			c1.467,1.467,3.39,2.201,5.314,2.201c1.924,0,3.846-0.734,5.314-2.201l12.044-12.044
			C393.902,128.726,393.902,123.967,390.967,121.033z"/>
	</g>
</g>
<g>
	<g>
		<path d="M143.704,368.296c-2.934-2.934-7.693-2.934-10.627,0l-12.044,12.044c-2.935,2.934-2.935,7.693,0,10.627
			c1.467,1.467,3.39,2.201,5.313,2.201c1.923,0,3.846-0.734,5.314-2.201l12.044-12.044
			C146.639,375.989,146.639,371.23,143.704,368.296z"/>
	</g>
</g>
<g>
	<g>
		<path d="M390.968,380.34l-12.045-12.044c-2.934-2.934-7.693-2.934-10.627,0c-2.935,2.934-2.935,7.693,0,10.627l12.044,12.044
			c1.467,1.467,3.39,2.201,5.314,2.201c1.924,0,3.846-0.734,5.314-2.201C393.903,388.033,393.903,383.274,390.968,380.34z"/>
	</g>
</g>
<g>
	<g>
		<path d="M143.704,133.077l-12.044-12.044c-2.934-2.934-7.693-2.934-10.627,0c-2.935,2.934-2.935,7.693,0,10.627l12.044,12.044
			c1.467,1.467,3.39,2.201,5.314,2.201s3.846-0.734,5.314-2.201C146.639,140.77,146.639,136.011,143.704,133.077z"/>
	</g>
</g>
<g>
	<g>
		<path d="M126.864,227.335c-1.376,0-2.614,0.481-2.958,1.788l-10.868,37.281l-5.846-23.936c-0.413-1.72-2.408-2.477-4.334-2.477
			c-1.995,0-3.989,0.757-4.402,2.477l-5.846,23.936l-10.868-37.281c-0.344-1.307-1.582-1.788-2.957-1.788
			c-2.545,0-5.709,1.582-5.709,3.577c0,0.275,0.069,0.619,0.138,0.825l13.619,43.265c0.619,2.064,3.233,3.027,5.847,3.027
			c2.545,0,5.227-0.963,5.709-3.027l4.471-18.571l4.402,18.571c0.482,2.064,3.164,3.027,5.709,3.027
			c2.614,0,5.159-0.963,5.846-3.027l13.619-43.265c0.068-0.206,0.137-0.55,0.137-0.825
			C132.573,228.917,129.409,227.335,126.864,227.335z"/>
	</g>
</g>
<g>
	<g>
		<path d="M435.621,269.774h-19.466V255.95h10.455c1.926,0,2.82-1.857,2.82-3.439c0-1.857-1.032-3.577-2.82-3.577h-10.455v-13.756
			h19.466v-0.001c1.788,0,2.82-1.857,2.82-3.99c0-1.857-0.894-3.852-2.82-3.852h-24.487c-1.995,0-3.92,0.963-3.92,2.82v44.641
			c0,1.857,1.926,2.82,3.92,2.82h24.487c1.926,0,2.82-1.995,2.82-3.852C438.441,271.631,437.409,269.774,435.621,269.774z"/>
	</g>
</g>
<g>
	<g>
		<path d="M268.208,65.255c-2.27,0-4.471,0.825-4.471,2.751v27.651L250.462,70c-2.133-4.058-3.439-4.746-6.672-4.746
			c-2.27,0-4.471,0.894-4.471,2.82v44.641c0,1.857,2.201,2.82,4.471,2.82c2.201,0,4.471-0.963,4.471-2.82V85.064l14.788,27.651
			c1.17,2.132,3.027,2.82,5.159,2.82c2.201,0,4.471-0.963,4.471-2.82V68.006C272.679,66.08,270.409,65.255,268.208,65.255z"/>
	</g>
</g>
<g>
	<g>
		<path d="M249.878,402.005c0-3.302,2.82-5.296,7.773-5.296c5.778,0,7.36,2.614,9.492,2.614c2.477,0,3.577-3.164,3.577-4.746
			c0-4.54-9.011-5.502-13.069-5.502c-7.91,0-16.714,3.508-16.714,13.757c0,16.301,22.08,13.137,22.08,23.455
			c-0.001,4.124-3.578,5.982-7.705,5.982c-7.016,0-8.873-5.296-11.693-5.296c-2.132,0-3.921,2.889-3.921,4.815
			c0,3.989,6.879,8.529,15.889,8.529c9.492,0,16.371-5.09,16.371-14.926C271.958,407.576,249.878,410.534,249.878,402.005z"/>
	</g>
</g>
<g>
	<g>
		<path d="M437.02,74.98C388.667,26.629,324.38,0,256,0S123.333,26.629,74.98,74.98C26.629,123.333,0,187.62,0,256
			s26.629,132.667,74.98,181.02C123.333,485.371,187.62,512,256,512s132.667-26.629,181.02-74.98
			C485.371,388.667,512,324.38,512,256S485.371,123.333,437.02,74.98z M426.392,426.392
			C380.879,471.906,320.366,496.971,256,496.971s-124.879-25.065-170.392-70.579C40.094,380.879,15.029,320.366,15.029,256
			S40.094,131.121,85.608,85.608C131.121,40.094,191.634,15.029,256,15.029s124.879,25.065,170.392,70.579
			c45.514,45.513,70.579,106.026,70.579,170.392S471.906,380.879,426.392,426.392z"/>
	</g>
</g>
<g>
	<g>
		<path d="M477.301,237.189c-4.639-55.283-29.716-106.542-70.613-144.333C365.556,54.846,312.041,33.913,256,33.913
			c-56.095,0-109.649,20.968-150.796,59.042C64.288,130.815,39.24,182.148,34.673,237.5c-0.341,4.136,2.736,7.765,6.872,8.107
			c0.21,0.017,0.419,0.026,0.626,0.026c3.87,0,7.157-2.971,7.481-6.897c4.257-51.594,27.611-99.449,65.76-134.749
			C153.773,68.491,203.701,48.943,256,48.943c52.248,0,102.141,19.515,140.488,54.951c38.131,35.236,61.512,83.021,65.837,134.551
			c0.347,4.136,3.984,7.208,8.116,6.86C474.577,244.958,477.648,241.324,477.301,237.189z"/>
	</g>
</g>
<g>
	<g>
		<path d="M470.471,266.06c-4.132-0.336-7.762,2.747-8.096,6.884c-4.182,51.665-27.506,99.597-65.675,134.966
			c-38.377,35.562-88.345,55.147-140.7,55.147c-52.366,0-102.342-19.592-140.723-55.168c-38.173-35.384-61.49-83.331-65.657-135.01
			c-0.334-4.137-3.959-7.218-8.094-6.887c-4.137,0.334-7.22,3.957-6.886,8.094c4.47,55.442,29.479,106.876,70.42,144.825
			c41.168,38.16,94.773,59.175,150.94,59.175c56.155,0,109.751-21.007,150.915-59.153c40.936-37.934,65.953-89.35,70.439-144.777
			C477.689,270.02,474.608,266.395,470.471,266.06z"/>
	</g>
</g>
<g>
	<g>
		<path d="M361.496,351.122l-67.458-106.024c-3.752-13.07-14.066-23.383-27.135-27.136l-106.025-67.458
			c-2.971-1.891-6.857-1.464-9.347,1.026c-2.49,2.49-2.917,6.376-1.026,9.347l67.458,106.024
			c3.752,13.07,14.066,23.384,27.136,27.136l106.025,67.458c1.239,0.79,2.638,1.175,4.03,1.175c1.941,0,3.865-0.75,5.316-2.201
			C362.96,357.979,363.387,354.093,361.496,351.122z M229.871,226.311c-0.146,0.129-0.298,0.252-0.442,0.383
			c-0.955,0.867-1.868,1.78-2.736,2.736c-0.131,0.145-0.255,0.297-0.384,0.443c-0.296,0.336-0.593,0.672-0.878,1.018
			c-0.16,0.194-0.31,0.396-0.467,0.593c-0.244,0.308-0.49,0.614-0.725,0.93c-0.163,0.219-0.317,0.445-0.475,0.668
			c-0.216,0.303-0.435,0.604-0.642,0.913c-0.159,0.237-0.309,0.481-0.463,0.722c-0.194,0.303-0.391,0.605-0.578,0.914
			c-0.152,0.252-0.294,0.51-0.44,0.765c-0.176,0.307-0.354,0.612-0.521,0.924c-0.142,0.265-0.275,0.535-0.412,0.803
			c-0.158,0.311-0.318,0.62-0.468,0.935c-0.131,0.276-0.254,0.557-0.379,0.836c-0.141,0.316-0.284,0.631-0.417,0.952
			c-0.032,0.077-0.069,0.152-0.101,0.229L181.33,181.33l59.747,38.014c-0.077,0.032-0.152,0.068-0.229,0.101
			c-0.321,0.134-0.638,0.277-0.955,0.419c-0.278,0.124-0.558,0.246-0.832,0.377c-0.317,0.151-0.629,0.312-0.941,0.471
			c-0.266,0.135-0.534,0.267-0.797,0.409c-0.314,0.169-0.621,0.348-0.93,0.525c-0.254,0.145-0.51,0.286-0.76,0.437
			c-0.311,0.188-0.615,0.386-0.921,0.582c-0.239,0.153-0.48,0.301-0.715,0.459c-0.313,0.21-0.616,0.431-0.923,0.649
			c-0.219,0.156-0.442,0.308-0.658,0.468c-0.32,0.238-0.63,0.488-0.943,0.735c-0.193,0.153-0.391,0.3-0.581,0.456
			C230.545,225.716,230.208,226.014,229.871,226.311z M254.59,280.505c-0.128-0.007-0.255-0.02-0.383-0.029
			c-0.346-0.025-0.692-0.056-1.036-0.096c-0.143-0.017-0.284-0.035-0.426-0.054c-0.334-0.044-0.666-0.096-0.998-0.154
			c-0.138-0.024-0.277-0.048-0.415-0.074c-0.351-0.068-0.701-0.146-1.049-0.228c-8.947-2.144-16.003-9.197-18.149-18.143
			c-0.084-0.352-0.162-0.704-0.231-1.059c-0.026-0.136-0.049-0.273-0.073-0.41c-0.058-0.333-0.11-0.667-0.155-1.002
			c-0.019-0.141-0.038-0.282-0.054-0.424c-0.04-0.345-0.07-0.691-0.096-1.037c-0.009-0.128-0.022-0.254-0.029-0.382
			c-0.027-0.47-0.043-0.94-0.043-1.41c0-13.536,11.012-24.548,24.548-24.548c0.47,0,0.941,0.016,1.41,0.043
			c0.13,0.007,0.259,0.02,0.388,0.03c0.343,0.025,0.686,0.055,1.028,0.095c0.146,0.017,0.291,0.036,0.437,0.056
			c0.329,0.044,0.656,0.095,0.983,0.152c0.143,0.025,0.287,0.049,0.429,0.077c0.343,0.066,0.684,0.142,1.024,0.223
			c8.959,2.139,16.024,9.199,18.17,18.155c0.083,0.348,0.161,0.698,0.229,1.049c0.027,0.138,0.05,0.276,0.074,0.415
			c0.058,0.332,0.11,0.664,0.154,0.998c0.019,0.142,0.038,0.284,0.054,0.426c0.04,0.345,0.07,0.69,0.096,1.036
			c0.009,0.128,0.022,0.255,0.029,0.383c0.027,0.47,0.043,0.94,0.043,1.41c0,13.536-11.012,24.548-24.548,24.548
			C255.529,280.548,255.059,280.532,254.59,280.505z M270.924,292.657c0.077-0.032,0.152-0.068,0.229-0.101
			c0.321-0.134,0.638-0.277,0.955-0.419c0.278-0.124,0.558-0.246,0.832-0.377c0.317-0.151,0.629-0.312,0.941-0.471
			c0.266-0.135,0.534-0.268,0.797-0.409c0.315-0.169,0.624-0.349,0.934-0.527c0.252-0.144,0.507-0.285,0.755-0.435
			c0.314-0.189,0.62-0.389,0.928-0.586c0.236-0.151,0.475-0.298,0.708-0.454c0.315-0.212,0.622-0.434,0.931-0.655
			c0.216-0.155,0.437-0.304,0.65-0.463c0.326-0.242,0.642-0.496,0.96-0.749c0.187-0.148,0.379-0.291,0.563-0.443
			c0.362-0.298,0.713-0.607,1.063-0.917c0.132-0.116,0.269-0.227,0.399-0.345c0.957-0.868,1.871-1.782,2.739-2.739
			c0.118-0.13,0.229-0.267,0.345-0.399c0.31-0.351,0.62-0.702,0.917-1.063c0.152-0.184,0.294-0.376,0.443-0.563
			c0.252-0.318,0.506-0.634,0.748-0.96c0.159-0.213,0.308-0.433,0.463-0.65c0.22-0.309,0.443-0.616,0.655-0.931
			c0.156-0.233,0.303-0.472,0.454-0.708c0.197-0.308,0.397-0.614,0.586-0.928c0.15-0.249,0.29-0.503,0.435-0.755
			c0.178-0.31,0.357-0.618,0.527-0.934c0.141-0.263,0.273-0.531,0.409-0.797c0.159-0.313,0.32-0.624,0.471-0.941
			c0.131-0.275,0.253-0.554,0.377-0.832c0.142-0.317,0.285-0.633,0.418-0.955c0.032-0.077,0.069-0.152,0.101-0.229l38.014,59.746
			L270.924,292.657z"/>
	</g>
</g>
<g>
</g>
<g>
</g>
<g>
</g>
<g>
</g>
<g>
</g>
<g>
</g>
<g>
</g>
<g>
</g>
<g>
</g>
<g>
</g>
<g>
</g>
<g>
</g>
<g>
</g>
<g>
</g>
<g>
</g>
</svg>
